<?xml version="1.0" standalone="no"?>
<!DOCTYPE svg PUBLIC "-//W3C//DTD SVG 20010904//EN"
 "http://www.w3.org/TR/2001/REC-SVG-20010904/DTD/svg10.dtd">
<svg version="1.0" xmlns="http://www.w3.org/2000/svg"
 width="700.000000pt" height="700.000000pt" viewBox="0 0 700.000000 700.000000"
 preserveAspectRatio="xMidYMid meet">
<metadata>
Created by potrace 1.14, written by Peter Selinger 2001-2017
</metadata>
<g transform="translate(0.000000,700.000000) scale(0.100000,-0.100000)"
fill="#000000" stroke="none">
<path d="M3810 6985 c-62 -20 -88 -34 -137 -73 -173 -136 -185 -397 -26 -555
69 -70 148 -99 353 -132 19 -3 43 -8 52 -11 9 -3 25 -6 35 -8 52 -11 183 -48
263 -76 542 -186 1005 -524 1346 -982 215 -289 378 -638 464 -993 27 -113 28
-117 46 -232 3 -21 7 -49 9 -63 23 -135 23 -611 0 -683 -2 -7 -6 -37 -10 -67
-10 -92 -65 -318 -110 -455 -116 -347 -309 -683 -545 -950 -118 -134 -364
-356 -468 -422 -15 -10 -32 -23 -38 -29 -13 -12 -127 -83 -212 -132 -54 -30
-214 -110 -292 -144 -233 -103 -599 -193 -870 -214 -162 -13 -491 -7 -576 10
-12 2 -45 7 -75 11 -120 15 -346 70 -499 122 -211 71 -433 180 -633 309 -55
36 -113 71 -127 76 -37 15 -134 35 -156 32 -129 -17 -168 -32 -242 -93 -182
-148 -176 -431 13 -581 38 -30 207 -137 305 -192 184 -105 431 -212 649 -282
129 -42 344 -98 421 -111 19 -3 46 -8 60 -10 50 -10 66 -13 130 -20 36 -4 74
-9 84 -11 62 -12 218 -19 411 -19 229 0 340 7 495 29 19 3 55 8 80 12 24 3 47
7 50 9 3 2 26 6 50 10 25 3 108 21 185 40 514 126 978 355 1393 688 134 108
373 338 463 447 30 35 62 73 72 85 41 45 173 232 247 350 79 126 228 413 267
515 95 245 167 484 196 650 7 38 17 92 21 120 2 14 7 41 10 60 22 135 30 263
31 490 0 177 -11 404 -20 420 -1 3 -6 34 -9 69 -4 36 -8 67 -10 70 -2 3 -7 26
-10 52 -18 138 -121 518 -166 614 -5 11 -21 52 -36 90 -34 88 -149 327 -206
425 -246 429 -593 814 -988 1098 -47 34 -89 65 -95 69 -15 13 -183 116 -250
155 -106 61 -277 143 -400 192 -66 27 -129 52 -140 57 -38 15 -178 59 -271 85
-288 78 -499 107 -584 79z"/>
<path d="M2495 6602 c-153 -16 -319 -126 -388 -256 -19 -37 -92 -203 -152
-346 -21 -52 -170 -397 -200 -467 -8 -18 -21 -48 -29 -65 -32 -74 -550 -1276
-563 -1308 -8 -19 -21 -51 -30 -70 -8 -19 -21 -48 -29 -65 -7 -16 -133 -309
-279 -650 -146 -341 -272 -633 -279 -650 -8 -16 -28 -64 -46 -105 -18 -41 -40
-93 -50 -115 -10 -22 -113 -263 -230 -535 -205 -475 -213 -498 -216 -568 -5
-119 35 -217 119 -294 96 -89 228 -121 353 -88 114 31 197 97 247 197 14 26
57 125 96 218 40 94 81 188 91 210 22 47 320 740 325 755 1 3 10 23 19 45 36
83 291 673 321 745 l32 75 884 1 c807 2 888 3 933 19 158 55 258 186 265 347
6 149 -76 280 -219 351 l-65 32 -736 3 -736 3 184 427 c101 235 190 441 198
459 8 17 15 34 15 37 0 3 11 29 24 58 13 29 37 85 54 123 16 39 46 106 65 150
19 44 46 107 60 140 14 33 29 59 33 58 4 0 51 -88 105 -193 102 -200 124 -233
168 -247 14 -5 159 -9 322 -8 276 1 297 2 330 21 39 23 61 62 61 107 0 31 -18
71 -203 455 -44 90 -79 165 -79 167 0 1 -39 83 -86 181 -48 99 -110 229 -139
291 -64 136 -107 194 -187 255 -94 71 -244 113 -363 100z"/>
<path d="M2825 4886 c-100 -32 -194 -106 -233 -183 -106 -207 -13 -450 205
-534 l58 -22 780 -2 c766 -2 781 -2 846 -23 290 -95 433 -413 308 -688 -21
-48 -78 -125 -117 -160 -34 -30 -135 -94 -159 -99 -10 -3 -45 -11 -78 -20 -51
-12 -201 -15 -990 -15 -511 0 -947 -3 -969 -6 -106 -13 -217 -99 -271 -207
-105 -213 12 -465 244 -527 31 -8 195 -12 547 -12 l503 -1 26 -61 c45 -102
106 -238 125 -281 11 -22 64 -141 118 -265 143 -324 159 -356 190 -377 25 -16
54 -18 337 -20 294 -1 312 0 346 19 41 23 67 69 63 113 -1 17 -57 153 -123
302 -66 150 -127 290 -137 310 -9 21 -24 56 -35 78 -64 140 -78 176 -66 180 7
2 48 6 92 9 172 12 327 57 485 139 249 130 451 341 564 588 36 80 83 220 91
273 3 17 9 56 14 86 14 83 6 324 -13 408 -86 389 -327 701 -675 877 -78 39
-249 98 -316 110 -22 3 -51 9 -65 12 -14 4 -392 7 -840 9 -640 2 -824 0 -855
-10z"/>
</g>
</svg>
